<svg xmlns="http://www.w3.org/2000/svg" xmlns:xlink="http://www.w3.org/1999/xlink" width="500" zoomAndPan="magnify" viewBox="0 0 375 187.499995" height="250" preserveAspectRatio="xMidYMid meet" version="1.0"><defs><g/><clipPath id="7b0037bc2b"><path d="M 28.328125 40.957031 L 139 40.957031 L 139 145.675781 L 28.328125 145.675781 Z M 28.328125 40.957031 " clip-rule="nonzero"/></clipPath><clipPath id="47d4f98a3d"><rect x="0" width="216" y="0" height="79"/></clipPath></defs><g clip-path="url(#7b0037bc2b)"><path fill="#37593c" d="M 83.636719 40.972656 C 82.726562 40.972656 82 41.71875 82 42.605469 L 82 59.710938 C 82 60.621094 82.726562 61.34375 83.636719 61.34375 C 84.546875 61.34375 85.269531 60.621094 85.269531 59.710938 L 85.269531 42.605469 C 85.269531 41.695312 84.546875 40.972656 83.636719 40.972656 Z M 56.257812 51.847656 C 55.996094 51.851562 55.734375 51.917969 55.492188 52.058594 C 54.699219 52.5 54.417969 53.503906 54.863281 54.273438 C 54.863281 54.273438 54.863281 54.296875 54.886719 54.296875 L 61.558594 65.894531 C 61.839844 66.429688 62.375 66.734375 62.960938 66.734375 C 63.871094 66.734375 64.59375 66.011719 64.59375 65.101562 C 64.59375 64.820312 64.523438 64.542969 64.382812 64.285156 L 57.710938 52.6875 C 57.40625 52.140625 56.835938 51.839844 56.257812 51.847656 Z M 111.421875 51.886719 C 110.84375 51.871094 110.277344 52.164062 109.957031 52.710938 L 103.285156 64.308594 C 102.839844 65.078125 103.097656 66.082031 103.867188 66.546875 C 104.636719 66.992188 105.640625 66.734375 106.109375 65.964844 L 106.109375 65.941406 L 112.804688 54.320312 C 113.25 53.550781 112.992188 52.546875 112.199219 52.101562 C 111.949219 51.964844 111.683594 51.894531 111.421875 51.886719 Z M 83.613281 64.589844 C 77.09375 64.59375 70.578125 67.074219 65.597656 72.03125 C 60.765625 76.769531 58.035156 83.234375 58.058594 90 C 58.058594 95.742188 60.929688 100.828125 63.472656 105.285156 C 64.6875 107.410156 65.804688 109.417969 66.390625 111.097656 C 67.441406 114.222656 68.210938 117.445312 68.699219 120.710938 C 68.769531 125.261719 72.457031 129.109375 76.84375 129.109375 L 90.402344 129.109375 C 94.765625 129.109375 98.476562 125.261719 98.546875 120.710938 C 99.035156 117.445312 99.808594 114.246094 100.855469 111.121094 C 101.441406 109.414062 102.558594 107.433594 103.75 105.332031 C 106.292969 100.828125 109.1875 95.71875 109.1875 89.953125 C 109.1875 83.210938 106.480469 76.722656 101.625 72.007812 C 96.644531 67.0625 90.128906 64.585938 83.613281 64.589844 Z M 83.613281 67.835938 C 89.300781 67.832031 94.988281 69.988281 99.339844 74.320312 C 103.539062 78.425781 105.921875 84.050781 105.921875 89.929688 C 105.921875 94.855469 103.261719 99.566406 100.902344 103.722656 C 99.644531 105.960938 98.453125 108.0625 97.753906 110.046875 C 96.632812 113.40625 95.816406 116.835938 95.304688 120.335938 C 95.304688 120.429688 95.28125 120.5 95.28125 120.59375 C 95.28125 123.371094 92.992188 125.84375 90.402344 125.84375 L 76.867188 125.84375 C 74.277344 125.84375 71.992188 123.371094 71.992188 120.59375 C 71.992188 120.523438 71.992188 120.429688 71.96875 120.359375 C 71.453125 116.859375 70.613281 113.40625 69.492188 110.070312 C 68.816406 108.085938 67.605469 105.9375 66.320312 103.675781 C 63.988281 99.542969 61.328125 94.878906 61.328125 90 C 61.328125 84.121094 63.707031 78.472656 67.90625 74.34375 C 72.246094 70.015625 77.929688 67.84375 83.613281 67.835938 Z M 36.78125 71.917969 C 36.203125 71.894531 35.628906 72.179688 35.308594 72.710938 C 34.839844 73.480469 35.097656 74.484375 35.867188 74.949219 L 35.890625 74.972656 L 47.441406 81.667969 C 48.210938 82.113281 49.214844 81.855469 49.683594 81.085938 C 50.148438 80.316406 49.867188 79.3125 49.097656 78.847656 L 37.546875 72.148438 C 37.304688 72.003906 37.042969 71.929688 36.78125 71.917969 Z M 131.121094 71.933594 C 130.855469 71.941406 130.59375 72.011719 130.351562 72.148438 L 118.800781 78.847656 C 118.03125 79.289062 117.75 80.292969 118.195312 81.085938 C 118.5 81.578125 119.035156 81.878906 119.617188 81.878906 C 119.898438 81.878906 120.179688 81.808594 120.433594 81.667969 L 131.988281 74.972656 C 132.757812 74.503906 133.011719 73.503906 132.570312 72.730469 C 132.265625 72.203125 131.695312 71.914062 131.121094 71.933594 Z M 29.964844 99.476562 C 29.054688 99.476562 28.328125 100.199219 28.328125 101.109375 C 28.328125 102.019531 29.054688 102.742188 29.964844 102.742188 L 47 102.742188 C 47.90625 102.742188 48.632812 102.019531 48.632812 101.109375 C 48.632812 100.199219 47.90625 99.476562 47 99.476562 Z M 120.273438 99.476562 C 119.363281 99.476562 118.640625 100.199219 118.640625 101.109375 C 118.640625 102.019531 119.363281 102.742188 120.273438 102.742188 L 137.308594 102.742188 C 138.21875 102.742188 138.941406 102.019531 138.941406 101.109375 C 138.941406 100.199219 138.21875 99.476562 137.308594 99.476562 Z M 72.667969 131.445312 C 71.757812 131.445312 71.035156 132.167969 71.035156 133.078125 C 71.035156 133.988281 71.757812 134.710938 72.667969 134.710938 L 94.601562 134.710938 C 95.511719 134.710938 96.238281 133.988281 96.238281 133.078125 C 96.238281 132.167969 95.511719 131.445312 94.601562 131.445312 Z M 75 137.046875 C 74.089844 137.046875 73.367188 137.769531 73.367188 138.679688 C 73.367188 139.589844 74.089844 140.3125 75 140.3125 L 92.269531 140.3125 C 93.179688 140.3125 93.902344 139.589844 93.902344 138.679688 C 93.902344 137.769531 93.179688 137.046875 92.269531 137.046875 Z M 77.335938 142.644531 C 76.425781 142.644531 75.699219 143.371094 75.699219 144.28125 C 75.699219 145.191406 76.425781 145.914062 77.335938 145.914062 L 89.9375 145.914062 C 90.847656 145.914062 91.570312 145.191406 91.570312 144.28125 C 91.570312 143.371094 90.847656 142.644531 89.9375 142.644531 Z M 77.335938 142.644531 " fill-opacity="1" fill-rule="nonzero"/></g><g transform="matrix(1, 0, 0, 1, 156, 53)"><g clip-path="url(#47d4f98a3d)"><g fill="#37593c" fill-opacity="1"><g transform="translate(0.884562, 61.144636)"><g><path d="M 13.546875 -18.15625 L 13.546875 -6.84375 L 33.296875 -6.84375 L 33.296875 0 L 5.375 0 L 5.375 -41.359375 L 32.84375 -41.359375 L 32.84375 -34.515625 L 13.546875 -34.515625 L 13.546875 -24.84375 L 30.40625 -24.84375 L 30.40625 -18.15625 Z M 13.546875 -18.15625 "/></g></g></g><g fill="#37593c" fill-opacity="1"><g transform="translate(36.43739, 61.144636)"><g><path d="M 12.953125 0.59375 C 10.140625 0.59375 7.992188 -0.160156 6.515625 -1.671875 C 5.035156 -3.191406 4.296875 -5.5 4.296875 -8.59375 L 4.296875 -43.734375 L 12.140625 -43.734375 L 12.140625 -8.90625 C 12.140625 -7 12.929688 -6.046875 14.515625 -6.046875 C 14.960938 -6.046875 15.441406 -6.125 15.953125 -6.28125 L 16.34375 -6.171875 L 17.0625 -0.140625 C 16.625 0.0859375 16.046875 0.265625 15.328125 0.390625 C 14.617188 0.523438 13.828125 0.59375 12.953125 0.59375 Z M 12.953125 0.59375 "/></g></g></g><g fill="#37593c" fill-opacity="1"><g transform="translate(54.369365, 61.144636)"><g/></g></g><g fill="#37593c" fill-opacity="1"><g transform="translate(68.030475, 61.144636)"><g><path d="M 13.296875 0 L 5.375 0 L 5.375 -41.359375 L 14.734375 -41.359375 L 31.34375 -14.703125 L 32.078125 -14.828125 L 32.078125 -41.359375 L 39.9375 -41.359375 L 39.9375 0 L 31.578125 0 L 14 -28.453125 L 13.296875 -28.34375 Z M 13.296875 0 "/></g></g></g><g fill="#37593c" fill-opacity="1"><g transform="translate(113.369524, 61.144636)"><g><path d="M 18.140625 0.59375 C 15.078125 0.59375 12.390625 -0.03125 10.078125 -1.28125 C 7.773438 -2.539062 5.984375 -4.378906 4.703125 -6.796875 C 3.429688 -9.222656 2.796875 -12.15625 2.796875 -15.59375 C 2.796875 -19.019531 3.429688 -21.945312 4.703125 -24.375 C 5.984375 -26.8125 7.773438 -28.65625 10.078125 -29.90625 C 12.390625 -31.164062 15.078125 -31.796875 18.140625 -31.796875 C 21.191406 -31.796875 23.867188 -31.164062 26.171875 -29.90625 C 28.484375 -28.65625 30.28125 -26.8125 31.5625 -24.375 C 32.851562 -21.945312 33.5 -19.019531 33.5 -15.59375 C 33.5 -12.15625 32.851562 -9.222656 31.5625 -6.796875 C 30.28125 -4.378906 28.484375 -2.539062 26.171875 -1.28125 C 23.867188 -0.03125 21.191406 0.59375 18.140625 0.59375 Z M 18.140625 -6.046875 C 22.984375 -6.046875 25.40625 -9.226562 25.40625 -15.59375 C 25.40625 -18.882812 24.78125 -21.300781 23.53125 -22.84375 C 22.289062 -24.382812 20.492188 -25.15625 18.140625 -25.15625 C 13.285156 -25.15625 10.859375 -21.96875 10.859375 -15.59375 C 10.859375 -9.226562 13.285156 -6.046875 18.140625 -6.046875 Z M 18.140625 -6.046875 "/></g></g></g><g fill="#37593c" fill-opacity="1"><g transform="translate(149.629448, 61.144636)"><g><path d="M 14.28125 0.59375 C 10.78125 0.59375 8.191406 -0.363281 6.515625 -2.28125 C 4.847656 -4.195312 4.015625 -6.945312 4.015625 -10.53125 L 4.015625 -31.203125 L 11.859375 -31.203125 L 11.859375 -11.515625 C 11.859375 -9.609375 12.265625 -8.21875 13.078125 -7.34375 C 13.898438 -6.46875 15.171875 -6.03125 16.890625 -6.03125 C 19.054688 -6.03125 20.742188 -6.738281 21.953125 -8.15625 C 23.160156 -9.582031 23.765625 -11.820312 23.765625 -14.875 L 23.765625 -31.203125 L 31.59375 -31.203125 L 31.59375 0 L 24.078125 0 L 24.078125 -4.578125 L 23.484375 -4.71875 C 22.484375 -2.925781 21.257812 -1.59375 19.8125 -0.71875 C 18.375 0.15625 16.53125 0.59375 14.28125 0.59375 Z M 14.28125 0.59375 "/></g></g></g><g fill="#37593c" fill-opacity="1"><g transform="translate(185.719669, 61.144636)"><g><path d="M 4.5 0 L 4.5 -31.203125 L 12.109375 -31.203125 L 12.109375 -26.5625 L 12.703125 -26.453125 C 13.453125 -28.179688 14.441406 -29.453125 15.671875 -30.265625 C 16.898438 -31.078125 18.390625 -31.484375 20.140625 -31.484375 C 21.910156 -31.484375 23.257812 -31.179688 24.1875 -30.578125 L 22.859375 -23.8125 L 22.265625 -23.703125 C 21.753906 -23.910156 21.257812 -24.0625 20.78125 -24.15625 C 20.3125 -24.25 19.738281 -24.296875 19.0625 -24.296875 C 16.875 -24.296875 15.203125 -23.523438 14.046875 -21.984375 C 12.898438 -20.453125 12.328125 -17.988281 12.328125 -14.59375 L 12.328125 0 Z M 4.5 0 "/></g></g></g></g></g></svg>